<?xml version="1.0" encoding="utf-8"?>
<!-- Generator: Adobe Illustrator 19.2.0, SVG Export Plug-In . SVG Version: 6.00 Build 0)  -->
<svg version="1.1" id="Слой_1" xmlns="http://www.w3.org/2000/svg" xmlns:xlink="http://www.w3.org/1999/xlink" x="0px" y="0px"
	 viewBox="0 0 16 16" style="enable-background:new 0 0 16 16;" xml:space="preserve">
<g>
	<path d="M13.2,12.1c-0.6,0-1.2,0-1.9,0.1c-0.8,0-1.5,0.1-2.3,0.1c-0.8,0.1-1.5,0.1-2.3,0.2c-0.4,0-0.8,0-1.1-0.1
		c-0.4-0.1-0.8-0.3-1-0.8c-0.1-0.3-0.1-0.6,0-0.9c0.1-0.3,0.2-0.5,0.3-0.8c0,0,0-0.1,0-0.1C4.7,9.1,4.5,8.4,4.2,7.6
		C4,6.7,3.7,5.9,3.5,5c-0.3-1.1-0.7-2.2-1-3.4c0-0.1,0-0.1-0.1-0.1c-0.5,0-1,0-1.4,0C0.6,1.6,0.3,1.3,0.2,1C0.2,0.7,0.4,0.4,0.7,0.3
		c0.1,0,0.1,0,0.2,0c0.7,0,1.4,0,2.1,0c0.3,0,0.5,0.2,0.6,0.5c0.2,0.6,0.3,1.1,0.5,1.7c0,0.1,0,0.1,0.1,0.1c2.2,0,4.4,0,6.6,0
		c1.6,0,3.2,0,4.8,0c0.4,0,0.7,0.4,0.7,0.8C16.1,3.9,16,4.4,15.9,5c-0.2,1.2-0.5,2.3-0.7,3.5c0,0.2-0.1,0.5-0.1,0.7
		c-0.1,0.3-0.3,0.5-0.6,0.6c-0.4,0.1-0.8,0.1-1.2,0.1c-0.6,0.1-1.1,0.1-1.7,0.2c-0.5,0.1-1,0.1-1.4,0.2c-0.6,0.1-1.2,0.1-1.8,0.2
		c-0.6,0.1-1.2,0.1-1.8,0.2c-0.3,0-0.6,0.1-0.9,0.1c0,0-0.1,0-0.1,0.1c0,0.1-0.1,0.2-0.1,0.3c0,0.2,0,0.3,0.2,0.3
		c0.2,0.1,0.5,0.1,0.7,0.1c0.5,0,1-0.1,1.4-0.1c0.6,0,1.1-0.1,1.7-0.1c0.3,0,0.6,0,0.9-0.1c0.9,0,1.9-0.1,2.8-0.1c0.3,0,0.7,0,1,0
		c0.3,0,0.5,0.2,0.5,0.5c0,0.3-0.2,0.5-0.5,0.5C14,12.2,13.6,12.2,13.2,12.1C13.2,12.1,13.2,12.1,13.2,12.1z M7.8,6
		c0-0.7,0-1.4,0-2.1c-1.1,0-2.2,0-3.3,0c0,0,0,0,0,0C4.7,4.6,5,5.3,5.2,6C5.2,6,5.2,6,5.3,6C6,6,6.8,6,7.6,6C7.7,6,7.8,6,7.8,6z
		 M11.2,6.7c-0.9,0-1.8,0-2.7,0c0,0.8,0,1.6,0,2.4c0.9-0.1,1.8-0.2,2.7-0.3C11.2,8.1,11.2,7.4,11.2,6.7z M8.5,3.9c0,0.7,0,1.4,0,2.1
		c0.9,0,1.8,0,2.7,0c0-0.7,0-1.4,0-2.1C10.3,3.9,9.4,3.9,8.5,3.9z M11.9,3.9c0,0.7,0,1.4,0,2.1c0.8,0,1.6,0,2.5,0
		c0.1-0.7,0.3-1.4,0.4-2.1C13.8,3.9,12.8,3.9,11.9,3.9z M5.4,6.7C5.4,6.7,5.4,6.7,5.4,6.7c0.3,0.9,0.5,1.8,0.8,2.6
		c0,0.1,0.1,0.1,0.1,0.1c0.3,0,0.6-0.1,0.8-0.1c0.2,0,0.5-0.1,0.7-0.1c0-0.8,0-1.7,0-2.5C7,6.7,6.2,6.7,5.4,6.7z M11.9,8.7
		c0.6-0.1,1.3-0.2,1.9-0.2c0.1,0,0.1,0,0.1-0.1C14,7.9,14,7.5,14.1,7.1c0-0.1,0-0.2,0.1-0.4c-0.8,0-1.6,0-2.3,0
		C11.9,7.4,11.9,8,11.9,8.7z"/>
	<path d="M7,14.4c0,0.7-0.6,1.3-1.3,1.3c-0.7,0-1.3-0.6-1.3-1.3c0-0.8,0.6-1.3,1.4-1.3C6.4,13.1,7,13.7,7,14.4z"/>
	<path d="M14.6,14.4c0,0.7-0.6,1.3-1.3,1.3c-0.7,0-1.3-0.6-1.4-1.3c0-0.8,0.6-1.4,1.3-1.4C14,13.1,14.6,13.7,14.6,14.4z"/>
</g>
</svg>
