<?xml version="1.0" encoding="utf-8"?>
<!-- Generator: Adobe Illustrator 19.2.0, SVG Export Plug-In . SVG Version: 6.00 Build 0)  -->
<svg version="1.1" id="Слой_1" xmlns="http://www.w3.org/2000/svg" xmlns:xlink="http://www.w3.org/1999/xlink" x="0px" y="0px"
	 viewBox="0 0 16 16" style="enable-background:new 0 0 16 16;" xml:space="preserve">
<style type="text/css">
	.st0{fill:#010203;}
</style>
<g>
	<g>
		<path class="st0" d="M2.7,0C1.2,0,0,1.2,0,2.7c0,1.5,1.2,2.7,2.7,2.7c1.5,0,2.7-1.2,2.7-2.7C5.4,1.2,4.2,0,2.7,0z M2.7,4.1
			C2,4.1,1.4,3.5,1.4,2.7C1.4,2,2,1.4,2.7,1.4S4.1,2,4.1,2.7C4.1,3.5,3.5,4.1,2.7,4.1z"/>
		<path class="st0" d="M7.6,13H5.2c-1,0-1.8-0.8-1.8-1.8V4.8H2v6.3c0,1.8,1.5,3.2,3.2,3.2h2.3V13z"/>
		<g>
			<polygon class="st0" points="9.6,13.6 6.7,11.2 6.7,13.6 			"/>
			<polygon class="st0" points="9.6,13.6 6.7,16 6.7,13.6 			"/>
		</g>
	</g>
	<g>
		<path class="st0" d="M13.3,16c1.5,0,2.7-1.2,2.7-2.7c0-1.5-1.2-2.7-2.7-2.7c-1.5,0-2.7,1.2-2.7,2.7C10.6,14.8,11.8,16,13.3,16z
			 M13.3,11.9c0.7,0,1.4,0.6,1.4,1.4c0,0.7-0.6,1.4-1.4,1.4s-1.4-0.6-1.4-1.4C11.9,12.5,12.5,11.9,13.3,11.9z"/>
		<path class="st0" d="M8.4,3h2.4c1,0,1.8,0.8,1.8,1.8v6.4H14V4.9c0-1.8-1.5-3.2-3.2-3.2H8.4V3z"/>
		<g>
			<polygon class="st0" points="6.4,2.4 9.3,4.8 9.3,2.4 			"/>
			<polygon class="st0" points="6.4,2.4 9.3,0 9.3,2.4 			"/>
		</g>
	</g>
</g>
</svg>
