<?xml version="1.0" encoding="utf-8"?>
<!-- Generator: Adobe Illustrator 19.2.0, SVG Export Plug-In . SVG Version: 6.00 Build 0)  -->
<svg version="1.1" id="Слой_1" xmlns="http://www.w3.org/2000/svg" xmlns:xlink="http://www.w3.org/1999/xlink" x="0px" y="0px"
	 viewBox="0 0 16 16" style="enable-background:new 0 0 16 16;" xml:space="preserve">
<style type="text/css">
	.st0{fill:#010203;}
</style>
<g>
	<path class="st0" d="M8,0C5.2,0,3,2.2,3,5s2.2,5,5,5s5-2.2,5-5S10.8,0,8,0z M8,8.7C5.9,8.7,4.2,7.1,4.2,5c0-2.1,1.7-3.8,3.8-3.8
		s3.8,1.7,3.8,3.8C11.7,7.1,10.1,8.7,8,8.7z"/>
	<path class="st0" d="M8,10.3c3.2,0,5.7,2.6,5.7,5.7H15c0-3.9-3.1-7-7-7c-3.9,0-7,3.1-7,7h1.3C2.3,12.8,4.8,10.3,8,10.3z"/>
</g>
</svg>
