<svg xmlns="http://www.w3.org/2000/svg" viewBox="0 0 16 16"><path d="M13.2 12.1c-.6 0-1.2 0-1.9.1-.8 0-1.5.1-2.3.1-.8.1-1.5.1-2.3.2-.4 0-.8 0-1.1-.1-.4-.1-.8-.3-1-.8-.1-.3-.1-.6 0-.9.1-.3.2-.5.3-.8v-.1c-.2-.7-.4-1.4-.7-2.2-.2-.9-.5-1.7-.7-2.6-.3-1.1-.7-2.2-1-3.4 0-.1 0-.1-.1-.1H1C.6 1.6.3 1.3.2 1 .2.7.4.4.7.3H3c.3 0 .5.2.6.5.2.6.3 1.1.5 1.7 0 .1 0 .1.1.1H15.6c.4 0 .7.4.7.8-.2.5-.3 1-.4 1.6-.2 1.2-.5 2.3-.7 3.5 0 .2-.1.5-.1.7-.1.3-.3.5-.6.6-.4.1-.8.1-1.2.1-.6.1-1.1.1-1.7.2-.5.1-1 .1-1.4.2-.6.1-1.2.1-1.8.2-.6.1-1.2.1-1.8.2-.3 0-.6.1-.9.1 0 0-.1 0-.1.1s-.1.2-.1.3c0 .2 0 .3.2.3.2.1.5.1.7.1.5 0 1-.1 1.4-.1.6 0 1.1-.1 1.7-.1.3 0 .6 0 .9-.1.9 0 1.9-.1 2.8-.1h1c.3 0 .5.2.5.5s-.2.5-.5.5c-.2 0-.6 0-1-.1zM7.8 6V3.9H4.5c.2.7.5 1.4.7 2.1h2.6zm3.4.7H8.5v2.4l2.7-.3V6.7zM8.5 3.9V6h2.7V3.9H8.5zm3.4 0V6h2.5c.1-.7.3-1.4.4-2.1h-2.9zM5.4 6.7c.3.9.5 1.8.8 2.6 0 .1.1.1.1.1.3 0 .6-.1.8-.1.2 0 .5-.1.7-.1V6.7H5.4zm6.5 2c.6-.1 1.3-.2 1.9-.2.1 0 .1 0 .1-.1.1-.5.1-.9.2-1.3 0-.1 0-.2.1-.4h-2.3v2zM7 14.4c0 .7-.6 1.3-1.3 1.3-.7 0-1.3-.6-1.3-1.3 0-.8.6-1.3 1.4-1.3.6 0 1.2.6 1.2 1.3zM14.6 14.4c0 .7-.6 1.3-1.3 1.3-.7 0-1.3-.6-1.4-1.3 0-.8.6-1.4 1.3-1.4.8.1 1.4.7 1.4 1.4z"/></svg>