<svg id="Слой_1" xmlns="http://www.w3.org/2000/svg" viewBox="0 0 16 16"><style>.st0{fill:#010203}</style><path class="st0" d="M2.7 0C1.2 0 0 1.2 0 2.7c0 1.5 1.2 2.7 2.7 2.7 1.5 0 2.7-1.2 2.7-2.7C5.4 1.2 4.2 0 2.7 0zm0 4.1c-.7 0-1.3-.6-1.3-1.4 0-.7.6-1.3 1.3-1.3s1.4.6 1.4 1.3c0 .8-.6 1.4-1.4 1.4z"/><path class="st0" d="M7.6 13H5.2c-1 0-1.8-.8-1.8-1.8V4.8H2v6.3c0 1.8 1.5 3.2 3.2 3.2h2.3V13z"/><path class="st0" d="M9.6 13.6l-2.9-2.4v2.4zM9.6 13.6L6.7 16v-2.4z"/><g><path class="st0" d="M13.3 16c1.5 0 2.7-1.2 2.7-2.7 0-1.5-1.2-2.7-2.7-2.7-1.5 0-2.7 1.2-2.7 2.7 0 1.5 1.2 2.7 2.7 2.7zm0-4.1c.7 0 1.4.6 1.4 1.4 0 .7-.6 1.4-1.4 1.4s-1.4-.6-1.4-1.4c0-.8.6-1.4 1.4-1.4z"/><path class="st0" d="M8.4 3h2.4c1 0 1.8.8 1.8 1.8v6.4H14V4.9c0-1.8-1.5-3.2-3.2-3.2H8.4V3z"/><path class="st0" d="M6.4 2.4l2.9 2.4V2.4zM6.4 2.4L9.3 0v2.4z"/></g></svg>